<svg version="1.1" viewBox="0.0 0.0 960.0 540.0" fill="none" stroke="none" stroke-linecap="square" stroke-miterlimit="10" xmlns:xlink="http://www.w3.org/1999/xlink" xmlns="http://www.w3.org/2000/svg"><clipPath id="g2ba599e2e7f_0_21.0"><path d="m0 0l960.0 0l0 540.0l-960.0 0l0 -540.0z" clip-rule="nonzero"/></clipPath><g clip-path="url(#g2ba599e2e7f_0_21.0)"><path fill="#ffffff" d="m0 0l960.0 0l0 540.0l-960.0 0z" fill-rule="evenodd"/><path fill="#000000" fill-opacity="0.0" d="m299.7853 69.39237l365.08444 0l0 371.4573l-365.08444 0z" fill-rule="evenodd"/><path stroke="#000000" stroke-width="2.0" stroke-linejoin="round" stroke-linecap="butt" d="m299.7853 69.39237l365.08444 0l0 371.4573l-365.08444 0z" fill-rule="evenodd"/><path fill="#000000" d="m258.37894 92.40381l365.08438 0l0 371.4573l-365.08438 0z" fill-rule="evenodd"/><path fill="#000000" fill-opacity="0.0" d="m322.3937 124.23491l94.555664 0l0 261.77087l-94.555664 0z" fill-rule="evenodd"/><path fill="#ffffff" d="m392.59683 325.82864q-14.40625 0 -25.90625 -6.6875q-11.5 -6.703125 -18.203125 -18.59375q-6.6875 -11.90625 -6.6875 -27.3125q0 -15.59375 6.6875 -27.29686q6.703125 -11.703125 18.203125 -18.5q11.5 -6.796875 25.90625 -6.796875q14.0 0 25.1875 6.59375q11.203125 6.59375 17.703125 18.40625q6.5 11.79686 6.5 27.593735q0 15.59375 -6.5 27.59375q-6.5 12.0 -17.703125 18.5q-11.1875 6.5 -25.1875 6.5zm0.203125 -6.0q12.796875 0 22.796875 -5.890625q10.0 -5.90625 15.796875 -16.5q5.796875 -10.609375 5.796875 -24.203125q0 -13.796875 -5.796875 -24.29686q-5.796875 -10.5 -15.796875 -16.296875q-10.0 -5.8125 -22.796875 -5.8125q-12.609375 0 -22.609375 5.8125q-10.0 5.796875 -15.90625 16.296875q-5.890625 10.499985 -5.890625 24.29686q0 13.59375 5.890625 24.203125q5.90625 10.59375 15.90625 16.5q10.0 5.890625 22.609375 5.890625zm44.59375 5.40625l0 -36.40625l1.796875 -15.796875l-2.0 -15.796875l0 -80.406235l6.609375 0l0 148.40623l-6.40625 0z" fill-rule="nonzero"/><path fill="#000000" fill-opacity="0.0" d="m405.57013 190.91077l127.6004 0l0 261.77087l-127.6004 0z" fill-rule="evenodd"/><path fill="#ffffff" d="m487.97638 392.50452q-14.0 0 -25.203125 -6.5q-11.203125 -6.5 -17.703125 -18.5q-6.5 -12.0 -6.5 -27.59375q0 -15.796875 6.5 -27.59375q6.5 -11.8125 17.703125 -18.40625q11.203125 -6.59375 25.203125 -6.59375q14.390625 0 25.890625 6.796875q11.5 6.796875 18.203125 18.5q6.703125 11.703125 6.703125 27.296875q0 15.40625 -6.703125 27.3125q-6.703125 11.890625 -18.203125 18.59375q-11.5 6.6875 -25.890625 6.6875zm-51.203125 -0.59375l0 -148.40625l6.59375 0l0 80.40625l-2.0 15.796875l1.796875 15.796875l0 36.40625l-6.390625 0zm51.0 -5.40625q12.59375 0 22.6875 -5.890625q10.109375 -5.90625 15.90625 -16.5q5.796875 -10.609375 5.796875 -24.203125q0 -13.796875 -5.796875 -24.296875q-5.796875 -10.5 -15.90625 -16.296875q-10.09375 -5.8125 -22.6875 -5.8125q-12.796875 0 -22.796875 5.8125q-10.0 5.796875 -15.8125 16.296875q-5.796875 10.5 -5.796875 24.296875q0 13.59375 5.796875 24.203125q5.8125 10.59375 15.8125 16.5q10.0 5.890625 22.796875 5.890625z" fill-rule="nonzero"/></g></svg>